PathFileType	4	(X/Y/Z)	Patient4_TMGait_0pt4_01_right_04.trc.trc
DataRate	CameraRate	NumFrames	NumMarkers	Units	OrigDataRate	OrigDataStartFrame	OrigNumFrames
77.348066298343	77.348066298343	4	33	mm	77.348066298343	1	       141
Frame#	Time	Sacral			L.Shoulder			Chest			R.Shoulder			Neck			R.ASIS			L.ASIS			R.Thigh.Superior			R.Thigh.Lateral			R.Thigh.Inferior			R.Patella			L.Thigh.Superior			L.Thigh.Lateral			L.Thigh.Inferior			L.Patella			L.Shank.Superior			L.Shank.Lateral			L.Shank.Inferior			R.Shank.Superior			R.Shank.Lateral			R.Shank.Inferior			R.Heel			R.Midfoot.Superior			R.Midfoot.Lateral			R.Toe			L.Heel			L.Midfoot.Lateral			L.Midfoot.Superior			L.Toe			L.Elbow			L.Wrist			R.Elbow			R.Wrist			
		X1	Y1	Z1	X2	Y2	Z2	X3	Y3	Z3	X4	Y4	Z4	X5	Y5	Z5	X6	Y6	Z6	X7	Y7	Z7	X8	Y8	Z8	X9	Y9	Z9	X10	Y10	Z10	X11	Y11	Z11	X12	Y12	Z12	X13	Y13	Z13	X14	Y14	Z14	X15	Y15	Z15	X16	Y16	Z16	X17	Y17	Z17	X18	Y18	Z18	X19	Y19	Z19	X20	Y20	Z20	X21	Y21	Z21	X22	Y22	Z22	X23	Y23	Z23	X24	Y24	Z24	X25	Y25	Z25	X26	Y26	Z26	X27	Y27	Z27	X28	Y28	Z28	X29	Y29	Z29	X30	Y30	Z30	X31	Y31	Z31	X32	Y32	Z32	X33	Y33	Z33	

1	4.740000000000	817.582476315246	1006.848109922915	449.293222905543	1005.989965732491	1423.286009112301	247.686303633753	1097.755815549978	1369.074126508766	420.049466430935	1004.828862928219	1455.273043705806	583.168711578086	986.093320675681	1500.191944127770	402.356175445131	1045.336164376932	954.486497035409	571.019130264156	1036.853446618919	966.358093909957	296.648178265025	1130.522111664439	782.505058875831	547.679081784015	1089.864329675512	660.756906297525	622.264737021414	1183.183117760905	622.530941996816	548.089824133301	1203.244018658714	512.881428079230	572.142450389757	1086.084145317826	753.762834555323	324.364417720409	995.356523471970	638.575025386018	267.194681817829	1079.022489213772	561.644255867685	330.170089054455	1077.767812977816	493.855194643690	341.275594375777	1054.800157349790	420.984564134483	333.645089986860	968.501310667928	303.385911996458	284.794779467621	1023.618418742273	195.359481213258	358.245480255893	1133.339352549662	433.110124566308	575.796613835870	1015.242674319555	382.987642295110	635.203554506051	1009.925222294467	274.111545092148	584.125230023031	812.902192326760	191.591250879320	557.074684244009	988.729034556317	153.780754721472	591.816927988146	881.044599974850	138.299570922180	627.729931480266	1068.771318049866	51.221371498611	614.860161765634	898.788379394562	37.897088422948	402.565677772540	972.483318315431	35.228585835269	321.154407789382	1055.115385853967	97.200117882994	347.340039575073	1183.959574389475	47.118331342170	319.635223228253	1079.788095980927	1085.092798861487	128.587035364829	1201.700759823484	854.324471973232	120.620163790603	933.394770496598	1131.878606946404	737.664663570513	1030.360215662706	895.718400436856	792.758230485904	
2	4.752928571429	816.231654445040	1007.922671190610	447.540620436354	1007.260518773622	1423.664385786736	246.452922449886	1097.711354925577	1369.337134205244	419.455356229353	1003.898414755283	1455.708459515802	581.970537962816	986.514477293817	1500.616982291130	401.125020810657	1043.358809829906	955.504388867500	570.767410827529	1036.354982271522	966.313597373026	296.395838174683	1129.251420991724	784.348258116506	547.222031626331	1089.636461632230	662.458506830226	621.960824277905	1182.477451463928	624.629248305558	547.133991678326	1204.071143751207	516.149020517632	571.447405203582	1083.471949683450	753.145175787311	325.186893822498	992.235591349069	638.747405275684	266.998765489182	1074.772225400121	561.131702322127	330.560535105724	1072.862650098579	493.505531069692	341.640467396964	1049.906794857265	420.888574034979	333.866610795489	963.595677252298	303.401067101905	284.948294981360	1018.307047217047	195.256284103382	358.405712325416	1136.561649201850	434.931573305643	575.700943687978	1020.985619868325	380.504741640569	635.710482279738	1019.749448345453	271.523760396353	584.799324084922	826.536725628377	181.398194139295	558.435369352047	1003.745159121430	151.631737370368	594.271167963613	896.643458902393	131.495071865127	629.536722504130	1087.179006410776	51.806760209796	616.807764918696	893.284179508628	37.891489803441	402.587291178150	966.978385769228	35.246583282155	321.181896976373	1049.669207251511	97.125256934807	347.415547684578	1178.495026816735	46.941416601483	319.629562180483	1080.231053246752	1085.532140067799	127.147306946065	1201.455790273102	854.401705867117	119.223712197324	925.485243698389	1133.073587424760	733.734533256448	1011.948099727656	893.787084183400	790.060831842264	
3	4.765857142857	814.884906622242	1008.959202860931	445.834712700607	1008.558942498397	1424.006382820094	245.267987417348	1097.688663500856	1369.551411290145	418.904612381709	1003.000619518358	1456.110296701401	580.813101749005	986.960181821442	1501.011902185883	399.938109355688	1041.389806192244	956.485925294369	570.531329782755	1035.840169242742	966.249558194719	296.158897738404	1127.925027661552	786.072232247959	546.783912784514	1089.228096153580	664.047009525822	621.670830155467	1181.562370628219	626.553326789378	546.212014803813	1204.627359384708	519.291581761991	570.756065127231	1080.879228102944	752.536112265198	326.036648907287	989.167658385060	638.901456246874	266.804631092714	1070.571282363693	560.621882759979	330.965748166621	1068.017000224226	493.153541066516	342.003400396245	1045.069956152965	420.782502227768	334.089383340938	958.751239581716	303.408501501958	285.092705316385	1013.042880886454	195.147806261301	358.563705425459	1139.620108182621	436.661396192073	575.611071498057	1026.722829751604	377.879912484742	636.296797078654	1029.634331486175	268.846625699826	585.533226762786	840.407552668237	171.005128812473	559.962750397605	1018.893241577433	149.357355630229	596.652095453516	912.511768714985	124.568375810429	631.431315910817	1105.802176802291	52.465874718344	618.717103364207	887.823965840079	37.884623221847	402.609379930828	961.517073396630	35.264180214773	321.210103441829	1044.264379547197	97.049982785166	347.492541443144	1173.075101966705	46.761498563613	319.625511979595	1080.712677267110	1085.943765245577	125.746828567659	1201.226276036983	854.440909415038	117.856880915077	917.709487081799	1134.245940532589	729.853085207300	993.836583791740	891.962901774378	787.324690089310	
4	4.778785714286	813.550074004329	1009.926296160292	444.215552488635	1009.906299954363	1424.280288091549	244.184578318701	1097.706178491092	1369.673851829494	418.443772476116	1002.166400764822	1456.449161859072	579.741601329585	987.450951765893	1501.350168344708	398.843658602744	1039.433315897523	957.390321131931	570.333006671702	1035.300525125977	966.150293344415	295.956566709631	1126.459675916726	787.542746687681	546.395925814159	1088.450307906962	665.413421002302	621.426087218296	1180.224706429050	628.134086725246	545.365753295788	1204.648108635565	522.188135866719	570.082918248329	1078.324091192507	751.939430780511	326.924001720255	986.191095586772	639.022143910823	266.617191011267	1066.461778289373	560.115188013750	331.391041218744	1063.284749530121	492.797223186924	342.358176967396	1040.335824529279	420.657687520154	334.311174778632	954.010428287312	303.404188852476	285.215120907387	1007.859485796696	195.030000238119	358.713231252722	1142.336760594396	438.223875589914	575.542359524216	1032.406978179485	375.016826732452	637.013631780703	1039.586195982123	266.051357371418	586.362361254861	854.692031995069	160.339307062210	561.740213907100	1034.235879970318	146.915633375751	598.887452521759	928.828326139856	117.489680784418	633.442793423112	1124.736288266369	53.307894232104	620.534426888103	882.436745206724	37.875757358086	402.631916739317	956.129156450431	35.280208244909	321.239010668155	1038.929664670066	96.974187812598	347.570567529255	1167.730234617678	46.575290443469	319.624922511893	1081.263998252319	1086.301527642748	124.431015116529	1201.037644250928	854.412353880038	116.567941890012	910.224114241907	1135.367775467515	726.085779809011	976.385303888207	890.335963713002	784.536019618755	
